<svg width="15" height="15" viewBox="0 0 15 15" fill="none" xmlns="http://www.w3.org/2000/svg">
<path d="M2.92937 3.88313L4.25 11.86C4.31041 12.2252 4.49849 12.5571 4.78075 12.7965C5.06301 13.036 5.42111 13.1674 5.79125 13.1675H7.88375M12.07 3.88313L10.75 11.86C10.6896 12.2252 10.5015 12.5571 10.2192 12.7965C9.93699 13.036 9.57889 13.1674 9.20875 13.1675H7.11625M6.26375 6.94751V10.1031M8.73625 6.94751V10.1031M1.71875 3.88313H13.2812M9.23563 3.88313V2.77063C9.23563 2.52199 9.13685 2.28353 8.96104 2.10772C8.78522 1.9319 8.54677 1.83313 8.29813 1.83313H6.70187C6.45323 1.83313 6.21478 1.9319 6.03896 2.10772C5.86315 2.28353 5.76437 2.52199 5.76437 2.77063V3.88313H9.23563Z" stroke="#DE1A1A" stroke-linecap="round" stroke-linejoin="round"/>
</svg>
