<svg width="15" height="15" viewBox="0 0 15 15" fill="none" xmlns="http://www.w3.org/2000/svg">
<path d="M5.5 12.6243C5.34159 12.783 5.15346 12.9089 4.94638 12.9948C4.7393 13.0807 4.51732 13.1249 4.29312 13.125H1.875V10.7225C1.875 10.27 2.055 9.8356 2.375 9.5156M5.5 12.6243L2.375 9.5156M5.5 12.6243L11.7338 6.3881M2.375 9.5156L8.615 3.26872L9.50625 2.37622C9.66485 2.21738 9.85319 2.09136 10.0605 2.00536C10.2679 1.91935 10.4901 1.87506 10.7146 1.875C10.939 1.87494 11.1613 1.91912 11.3687 2.00502C11.576 2.09092 11.7644 2.21684 11.9231 2.3756L12.6269 3.07997C12.9472 3.40031 13.1272 3.83477 13.1272 4.28778C13.1272 4.7408 12.9472 5.17526 12.6269 5.4956L11.7338 6.3881M11.7338 6.3881L8.61437 3.26872" stroke="#1E1E1E" stroke-linecap="round" stroke-linejoin="round"/>
</svg>
